<?xml version="1.0" encoding="utf-8"?><!DOCTYPE svg PUBLIC "-//W3C//DTD SVG 1.1//EN" "http://www.w3.org/Graphics/SVG/1.1/DTD/svg11.dtd"><svg viewBox="0 0 713 713" xmlns="http://www.w3.org/2000/svg" xmlns:xlink="http://www.w3.org/1999/xlink"><style>:root>svg{display:none}:root>svg:target{display:block}</style><svg viewBox="0 -101 713.752 713" id="airplane" xmlns="http://www.w3.org/2000/svg"><path d="M85.086 304.406c-6.145 2.883-8.856 10.14-6.117 16.344L107.035 381c1.38 3 3.895 5.336 6.988 6.488 1.356.492 2.793.746 4.239.746a12.419 12.419 0 005.238-1.117l212.055-99.047-19.207 200.825a12.478 12.478 0 004.109 10.48 54.445 54.445 0 0032.938 12.473 40.103 40.103 0 009.851-1.243c17.215-4.492 30.563-19.832 39.668-46.03l83.45-247.102 165.273-77.094c48.648-22.7 73.718-68.727 56.883-104.652a63.149 63.149 0 00-48.774-34.055 115.623 115.623 0 00-68.105 10.484L400.914 101.59 195.852 21.383c-25.825-9.727-46.278-9.477-60.622.879a50.87 50.87 0 00-18.59 40.285 12.483 12.483 0 005.364 9.86l138.082 94.921-79.078 37.422-132.602-33.684a12.48 12.48 0 00-13.844 5.989L1.512 236.55a12.441 12.441 0 00-.739 10.262A12.447 12.447 0 008 254.14l98.168 40.543zm57.121-248.094a21.342 21.342 0 017.488-13.472c7.114-5.117 20.086-4.367 37.422 2.117l182.617 71.227-83.328 38.918zM29.949 236.43l21.703-38.543 127.606 31.68c2.75.695 5.652.433 8.238-.743l414.75-193.719a91.172 91.172 0 0153.262-8.484 39.067 39.067 0 0130.437 19.707c10.47 22.457-10.11 55.262-44.914 71.477l-143.695 67.363 8.734-25.828c2.207-6.645-1.398-13.824-8.043-16.028-6.652-2.203-13.828 1.403-16.03 8.047L379.335 456.836c-6.113 17.344-13.723 27.7-22.203 29.937a21.11 21.11 0 01-15.219-2.863l24.95-261.953c.652-6.887-4.4-13-11.294-13.652-6.886-.66-13 4.398-13.656 11.285l-3.863 40.039-214.055 99.789-17.578-37.422 35.168-16.46a12.474 12.474 0 007.445-11.415c0-4.945-2.918-9.422-7.445-11.414zm0 0"/></svg><svg viewBox="0 0 489.2 489.2" id="attach" xmlns="http://www.w3.org/2000/svg"><path d="M133.457 68.928V38.156c-20.992 3.647-37.131 20.897-39.354 42.323l30.371-2.088c1.718-4.176 4.966-7.446 8.983-9.463zM323.166 37.32h-98.93C224.237 16.745 207.5 0 186.916 0c-20.582 0-37.32 16.745-37.32 37.32v127.091c0 20.575 16.738 37.321 37.32 37.321 20.584 0 37.32-16.746 37.32-37.321V112.97c0-8.912-7.219-16.139-16.139-16.139-8.92 0-16.139 7.227-16.139 16.139v51.441a5.052 5.052 0 01-5.043 5.044 5.054 5.054 0 01-5.043-5.044V37.32a5.053 5.053 0 015.043-5.043 5.052 5.052 0 015.043 5.043h-5.043v29.385l125.232-.079v63.002c0 18.416 14.957 33.365 33.35 33.365l61.748-.173.678 278.287c0 10.275-8.322 18.621-18.613 18.621H141.686c-10.277 0-18.629-8.346-18.629-18.621v-129.92L93.6 313.212v127.896c0 26.509 21.56 48.093 48.086 48.093h247.625c26.508 0 48.102-21.584 48.102-48.093v-289.96L323.166 37.32z"/><path d="M287.088 270.777l-11.93-173.615a12.932 12.932 0 00-4.397-8.865 12.956 12.956 0 00-9.377-3.144l-33.666 2.315c7.66 5.902 12.656 15.084 12.656 25.501v51.441c0 29.48-23.986 53.459-53.459 53.459s-53.459-23.979-53.459-53.459V93.947l-69.629 4.792c-7.125.495-12.498 6.658-12.01 13.782l11.916 173.615a12.935 12.935 0 004.396 8.865 12.955 12.955 0 009.377 3.144L275.08 284.56c7.123-.495 12.498-6.659 12.008-13.783z"/></svg><svg viewBox="0 0 503.52 503.52" id="certificate" xmlns="http://www.w3.org/2000/svg"><path d="M344.56 121.456a160.864 160.864 0 00-31.008-17.296l-12.368 29.504a129.35 129.35 0 0124.784 13.824l18.592-26.032zM391.584 173.952a159.84 159.84 0 00-20.592-28.8l-23.84 21.344a129.588 129.588 0 0116.496 23.12l27.936-15.664z"/><path d="M374.608 215.664c19.829 67.744-19.013 138.736-86.757 158.565-67.744 19.829-138.736-19.013-158.565-86.757-19.829-67.744 19.013-138.736 86.757-158.565a127.811 127.811 0 0157.973-3.227l5.52-31.536a163.863 163.863 0 00-27.776-2.384c-88.268.114-159.731 71.762-159.617 160.031s71.762 159.731 160.031 159.617c88.268-.114 159.731-71.762 159.617-160.031a159.838 159.838 0 00-6.431-44.673l-30.752 8.96z"/><path d="M503.52 251.76l-40.992-56.48 7.28-69.408-63.744-28.416-28.416-63.744-69.408 7.28L251.76 0l-56.48 40.992-69.408-7.28-28.416 63.744-63.744 28.416 7.28 69.408L0 251.76l40.992 56.48-7.28 69.408 63.744 28.416 28.416 63.744 69.408-7.28 56.48 40.992 56.48-40.992 69.408 7.28 28.416-63.744 63.744-28.416-7.28-69.408 40.992-56.48zM381.808 381.808l-24 53.744-58.432-6.192L251.76 464l-47.616-34.64-58.496 6.128-24-53.744-53.744-24 6.256-58.368-34.64-47.616 34.64-47.616-6.192-58.496 53.744-24 24-53.744 58.496 6.128L251.76 39.52l47.616 34.64 58.496-6.128 24 53.744 53.744 24-6.256 58.368L464 251.76l-34.64 47.616 6.128 58.496-53.68 23.936z"/><path d="M183.072 240.448l-22.624 22.624 59.312 59.312 107.312-107.312-22.624-22.624-84.688 84.688z"/></svg><svg viewBox="0 0 512 512" id="container" xmlns="http://www.w3.org/2000/svg"><path d="M472 186c-14.391 0-27.486 7.813-34.528 19.815l-152.57-42.196C291.772 156.433 296 146.702 296 136c0-5.522-4.477-10-10-10s-10 4.478-10 10c0 11.028-8.972 20-20 20s-20-8.972-20-20 8.972-20 20-20c5.523 0 10-4.478 10-10V80h20a10 10 0 008.944-5.528l30-60A10 10 0 00316 0H196a9.998 9.998 0 00-8.944 14.472l30 60A10 10 0 00226 80h20v17.266c-17.233 4.451-30 20.13-30 38.734 0 10.703 4.234 20.431 11.105 27.616l-152.586 42.2C67.466 193.801 54.379 186 40 186c-22.056 0-40 17.944-40 40v276c0 5.522 4.477 10 10 10h201c5.523 0 10-4.478 10-10s-4.477-10-10-10H20V266h472v226H301c-5.523 0-10 4.478-10 10s4.477 10 10 10h201c5.523 0 10-4.478 10-10V226c0-22.056-17.944-40-40-40zM232.18 60l-20-40h87.64l-20 40zM60 246H20v-20c0-11.028 8.972-20 20-20 10.924 0 20 8.911 20 20zm372-20v20H80s-.025-20.626-.033-20.94L256 176.375l176.033 48.685c-.008.314-.033.626-.033.94zm60 20h-40v-20c0-11.076 9.044-20 20-20 11.028 0 20 8.972 20 20z"/><path d="M122 316v126c0 5.522 4.477 10 10 10s10-4.478 10-10V316c0-5.522-4.477-10-10-10s-10 4.478-10 10zM60 316v126c0 5.522 4.477 10 10 10s10-4.478 10-10V316c0-5.522-4.477-10-10-10s-10 4.478-10 10zM452 442V316c0-5.522-4.477-10-10-10s-10 4.478-10 10v126c0 5.522 4.477 10 10 10s10-4.478 10-10zM390 442V316c0-5.522-4.477-10-10-10s-10 4.478-10 10v126c0 5.522 4.477 10 10 10s10-4.478 10-10zM328 442V316c0-5.522-4.477-10-10-10s-10 4.478-10 10v126c0 5.522 4.477 10 10 10s10-4.478 10-10zM256 306c-5.523 0-10 4.478-10 10v126c0 5.522 4.477 10 10 10s10-4.478 10-10V316c0-5.522-4.477-10-10-10zM184 316v126c0 5.522 4.477 10 10 10s10-4.478 10-10V316c0-5.522-4.477-10-10-10s-10 4.478-10 10z"/><circle cx="256" cy="502" r="10"/></svg><svg viewBox="0 0 512 512" id="copy" xmlns="http://www.w3.org/2000/svg"><path d="M464 64h-48V48c0-26.51-21.49-48-48-48H48C21.49 0 0 21.49 0 48v320c0 26.51 21.49 48 48 48h16v48c0 26.51 21.49 48 48 48h352c26.51 0 48-21.49 48-48V112c0-26.51-21.49-48-48-48zM64 112v272H48c-8.837 0-16-7.163-16-16V48c0-8.837 7.163-16 16-16h320c8.837 0 16 7.163 16 16v16H112c-26.51 0-48 21.49-48 48zm416 352c0 8.837-7.163 16-16 16H112c-8.837 0-16-7.163-16-16V112c0-8.837 7.163-16 16-16h352c8.837 0 16 7.163 16 16v352z"/></svg><svg viewBox="0 0 62 53.999" id="courier" xmlns="http://www.w3.org/2000/svg"><path d="M57.889 52A6.973 6.973 0 0060 47c0-3.406-2.445-6.248-5.671-6.87C54.64 38.88 55 36.65 55 33c0-4.175-3.053-7.609-4.558-9.05A4.027 4.027 0 0051 21.93c0-.807-.236-1.587-.684-2.259A4.972 4.972 0 0047 17.528v-2.286a3.977 3.977 0 00-1.172-2.829l-1.875-1.875A2.995 2.995 0 0041 8c-1.654 0-3 1.346-3 3s1.346 3 3 3c.977 0 1.837-.476 2.385-1.2l1.029 1.028c.378.38.586.881.586 1.415v2.338l-2.196.44c-.06-.005-.118-.02-.178-.02h-6.66a.999.999 0 01-.995-1v-1.732c0-1.37-.538-2.609-1.397-3.547C35.557 11.057 37 9.203 37 7V6h2V4h-2.132C36.386 1.886 34.634.227 32.487.022a5.045 5.045 0 00-3.851 1.276A5.011 5.011 0 0027 5v2c0 1.233.466 2.35 1.209 3.222a5.278 5.278 0 00-3.272 2.84l-4.468 9.702A5.136 5.136 0 0020 24.9c0 1.168.402 2.242 1.071 3.1h-1.256c.113-.314.185-.648.185-1V15c0-1.654-1.346-3-3-3H5c-1.654 0-3 1.346-3 3v12c0 1.654 1.346 3 3 3h8.754c-.459.715-.754 1.68-.754 3 0 2.305 2.243 3.87 4.618 5.525.829.578 1.667 1.162 2.427 1.781A6.985 6.985 0 0018 40c-3.859 0-7 3.14-7 7 0 1.958.81 3.728 2.111 5H0v2h26v-2h-3.111a7.057 7.057 0 001.289-1.717c.724.35 1.922.717 3.822.717 1.696 0 3.899-.174 6.451-.375 3.441-.272 7.706-.607 12.235-.622A7.015 7.015 0 0048.11 52H40v2h22v-2zM41 12a1.001 1.001 0 010-2 1.001 1.001 0 010 2zm-9.988 32C30.55 43.986 30 43.803 30 43c0-1.86 1.05-3.557 2.065-5.198.558-.9 1.092-1.775 1.459-2.664.281.586.444 1.21.444 1.872l.046 3.99H34v2c0 .351.072.685.184 1zM15.354 34c-.222-.336-.354-.669-.354-1 0-2.786 1.63-3 3.933-3h6.049c2.632.551 5.272 1.643 7.004 3.176a3.42 3.42 0 01-.17.823zm6.777-9.94l9.015 2.197C35.182 27.248 38 30.802 38 34.9V40h-1.998l-.034-3c0-4.983-5.771-8.176-11.49-9.13-1.436-.24-2.478-1.489-2.478-2.97 0-.283.054-.564.131-.839zM36 43v-1h2c.802 0 1.615.463 1.935 1.104a.616.616 0 01-.549.895H37c-.552 0-1-.449-1-1zm5.724-.789c-.362-.727-.982-1.316-1.724-1.705V34.9c0-4.494-2.764-8.445-6.881-10.095l.334-1.003c.496.13 1.005.198 1.515.198h4.658c.185 0 .368-.012.55-.027A2.995 2.995 0 0043 26l-1.295 1.726A3.558 3.558 0 0041 29.842c0 .943.38 1.841 1.069 2.53C42.79 33.092 44 34.652 44 37c0 2.88-1.13 5.813-1.643 7h-.438c.048-.199.081-.404.081-.618 0-.404-.096-.809-.276-1.17zm1.758-11.255A1.58 1.58 0 0143 29.842c0-.328.108-.654.306-.917L45.5 26h.137C46.434 26.7 49 29.247 49 33c0 4.23-.512 7.46-.792 8.912A7.05 7.05 0 0046.685 44h-2.164C45.143 42.411 46 39.73 46 37c0-3.069-1.577-5.103-2.518-6.043zM48.101 46c.13-.637.384-1.229.732-1.753l1.468 1.468a2.932 2.932 0 00-.116.285zM53 48a1.001 1.001 0 010-2 1.001 1.001 0 010 2zm1 1.816a2.98 2.98 0 00.285-.116l1.468 1.468A4.961 4.961 0 0154 51.9zm3.167-.063l-1.468-1.468c.044-.093.082-.188.116-.285h2.083a4.941 4.941 0 01-.731 1.753zM55.816 46a2.98 2.98 0 00-.116-.285l1.468-1.468c.348.524.602 1.116.732 1.753zM54.285 44.3a2.932 2.932 0 00-.285-.116v-2.083c.637.13 1.229.384 1.753.732zM52 44.183a2.98 2.98 0 00-.285.116l-1.468-1.468A4.961 4.961 0 0152 42.1zM50.184 48c.035.098.072.193.116.285l-1.468 1.468A4.961 4.961 0 0148.1 48zm1.531 1.7c.093.043.188.08.285.115v2.083a4.961 4.961 0 01-1.753-.732zM53 32.998c0 4.008-.459 6.145-.72 7.037a6.95 6.95 0 00-1.802.441A52.43 52.43 0 0051 33c0-3.279-1.533-5.748-2.792-7.226.296-.099.577-.225.839-.385C50.329 26.621 53 29.598 53 33zM48.652 20.78A2.072 2.072 0 0146.93 24H43a.987.987 0 01-.846-.5 6.609 6.609 0 002.152-1.443c.537-.539.785-1.31.663-2.062-.02-.12-.063-.235-.101-.35l.704-.14a2.988 2.988 0 013.08 1.276zM35.966 20h6.66a.373.373 0 01.369.317.368.368 0 01-.105.327A4.582 4.582 0 0139.626 22h-4.658c-1.668 0-2.873-.849-3.499-2.336l2.345-.586a2.98 2.98 0 002.152.922zM29.982 2.777a2.968 2.968 0 012.315-.765c1.133.11 2.082.91 2.489 1.986h-5.614a3.01 3.01 0 01.81-1.22zM29 6h6v1c0 1.654-1.346 3-3 3s-3-1.346-3-3zm-2.247 7.898A3.268 3.268 0 0129.712 12a3.267 3.267 0 013.259 3.27v1.73c0 .076.017.147.022.221l-1.969.492c-.019-.234-.044-.463-.044-.713v-1h-2v1c0 2.934 1.11 4.88 2.647 5.96l-.419 1.255-8.277-2.017zM10 14h2v2h-2zM4 27V15c0-.55.448-1 1-1h3v4h6v-4h3c.552 0 1 .45 1 1v12c0 .551-.448 1-1 1H5c-.552 0-1-.449-1-1zm16.816 19a2.98 2.98 0 00-.116-.285l1.468-1.468c.348.524.602 1.116.732 1.753zM19 47a1.001 1.001 0 01-2 0 1.001 1.001 0 012 0zm.285-2.699a2.932 2.932 0 00-.285-.116v-2.083c.637.13 1.229.384 1.753.732zM17 44.183a2.98 2.98 0 00-.285.116l-1.468-1.468A4.961 4.961 0 0117 42.1zm-1.699 1.531a2.932 2.932 0 00-.116.285h-2.083c.13-.637.384-1.229.732-1.753zM15.184 48c.035.098.072.193.116.285l-1.468 1.468A4.961 4.961 0 0113.1 48zm1.531 1.7c.093.043.188.08.285.115v2.083a4.961 4.961 0 01-1.753-.732zm2.285.116a2.98 2.98 0 00.285-.116l1.468 1.468A4.961 4.961 0 0119 51.9zm3.167-.063l-1.468-1.468c.044-.093.082-.188.116-.285h2.083a4.941 4.941 0 01-.731 1.753zM25 48.463V45.18c0-3.947-3.459-6.359-6.237-8.296A70.361 70.361 0 0117.516 36h13.307c-.149.247-.302.497-.459.75C29.256 38.541 28 40.571 28 43c0 1.446.776 2.278 1.649 2.685l-1.323 3.308c-.105.001-.226.007-.326.007-1.643 0-2.572-.327-3-.536zm9.294.166c-1.379.11-2.641.206-3.779.275L31.677 46H46.08c-.047.328-.08.66-.08 1 0 .343.033.678.081 1.008-4.377.041-8.464.36-11.787.622z"/><path d="M36 52h2v2h-2zM28 52h6v2h-6z"/></svg><svg viewBox="0 0 512 512" id="email" xmlns="http://www.w3.org/2000/svg"><path d="M467 61H45C20.218 61 0 81.196 0 106v300c0 24.72 20.128 45 45 45h422c24.72 0 45-20.128 45-45V106c0-24.72-20.128-45-45-45zm-6.214 30L256.954 294.833 51.359 91h409.427zM30 399.788V112.069l144.479 143.24L30 399.788zM51.213 421l144.57-144.57 50.657 50.222c5.864 5.814 15.327 5.795 21.167-.046L317 277.213 460.787 421H51.213zM482 399.787L338.213 256 482 112.212v287.575z"/></svg><svg viewBox="-110 1 511 512" id="facebook" xmlns="http://www.w3.org/2000/svg"><path d="M180 512H98.008c-13.695 0-24.836-11.14-24.836-24.836V302.227H25.336C11.64 302.227.5 291.082.5 277.39v-79.246c0-13.696 11.14-24.836 24.836-24.836h47.836v-39.684c0-39.348 12.355-72.824 35.726-96.805C132.375 12.73 165.184 0 203.778 0l62.53.102c13.672.023 24.794 11.164 24.794 24.835v73.579c0 13.695-11.137 24.836-24.829 24.836l-42.101.015c-12.84 0-16.11 2.574-16.809 3.363-1.152 1.31-2.523 5.008-2.523 15.223v31.352h58.27c4.386 0 8.636 1.082 12.288 3.12 7.88 4.403 12.778 12.727 12.778 21.723l-.031 79.247c0 13.687-11.141 24.828-24.836 24.828h-58.47v184.941C204.84 500.86 193.696 512 180 512zm-76.813-30.016h71.633V288.79c0-9.144 7.442-16.582 16.582-16.582h66.727l.027-68.883h-66.758c-9.14 0-16.578-7.437-16.578-16.582v-44.789c0-11.726 1.192-25.062 10.043-35.086 10.696-12.117 27.551-13.515 39.301-13.515l36.922-.016V30.109l-57.332-.093c-62.024 0-100.566 39.703-100.566 103.609v53.117c0 9.14-7.438 16.582-16.579 16.582H30.516v68.883h56.093c9.141 0 16.579 7.438 16.579 16.582zM266.25 30.117h.004zm0 0"/></svg><svg viewBox="0 0 512 512" id="headphones" xmlns="http://www.w3.org/2000/svg"><path d="M482 225.04V225C482 100.934 380.617 0 256 0S30 100.934 30 225v.04C11.797 238.737 0 260.515 0 285v62c0 41.355 33.645 75 75 75h30c8.285 0 15-6.715 15-15V225c0-74.438 61.008-135 136-135 74.988 0 136 60.563 136 135v182c0 8.285 6.715 15 15 15h15v15c0 8.27-6.73 15-15 15h-77.578c-6.195-17.457-22.867-30-42.422-30h-61c-24.813 0-45 20.188-45 45s20.188 45 45 45h61c19.555 0 36.227-12.543 42.422-30H407c24.813 0 45-20.188 45-45v-16.508c34.191-6.969 60-37.273 60-73.492v-62c0-24.484-11.797-46.262-30-59.96zM287 482h-61c-8.27 0-15-6.73-15-15s6.73-15 15-15h61c8.27 0 15 6.73 15 15s-6.73 15-15 15zM90 392H75c-24.813 0-45-20.188-45-45v-62c0-24.813 20.188-45 45-45h15zM256 60c-87.219 0-157.777 67.223-165.309 150H75c-4.969 0-9.816.496-14.516 1.422C67.516 110.21 152.512 30 256 30s188.484 80.21 195.516 181.422A74.997 74.997 0 00437 210h-15.691C413.773 127.184 343.179 60 256 60zm226 287c0 24.813-20.188 45-45 45h-15V240h15c24.813 0 45 20.188 45 45zm0 0"/></svg><svg viewBox="0 0 512 512" id="info" xmlns="http://www.w3.org/2000/svg"><path d="M470.232 206.392c-5.461-23.68-14.758-46.095-27.692-66.771l24.672-34.446-60.387-60.387-34.446 24.672c-20.675-12.935-43.09-22.231-66.771-27.692L298.69 0h-85.38l-6.918 41.768c-23.68 5.461-46.095 14.758-66.771 27.692l-34.446-24.672-60.387 60.387 24.674 34.449a220.997 220.997 0 00-12.954 23.875l13.603 6.321c6.027-12.969 11.461-21.42 17.504-30.612l-23.224-32.424 42.393-42.393 32.427 23.226 4.303-2.833c21.723-14.301 45.597-24.202 70.959-29.429l5.044-1.04L226.03 15h59.94l6.512 39.316 5.044 1.04c25.363 5.227 49.237 15.128 70.959 29.429l4.303 2.833 32.427-23.226 42.393 42.393-23.226 32.427 2.833 4.303c14.301 21.723 24.202 45.597 29.429 70.959l1.04 5.044L497 226.03v59.94l-39.316 6.512-1.04 5.044c-5.227 25.363-15.128 49.237-29.429 70.959l-2.833 4.303 23.226 32.427-42.393 42.393-32.427-23.226-4.303 2.833c-21.723 14.301-45.597 24.202-70.959 29.429l-5.044 1.04L285.97 497h-59.94l-6.512-39.316-5.044-1.04c-25.363-5.227-49.237-15.128-70.959-29.429l-4.303-2.833-32.427 23.226-42.393-42.393 23.226-32.427-2.833-4.303c-14.301-21.723-24.202-45.597-29.429-70.959l-1.04-5.044L15 285.97v-59.94l39.314-6.512c2.414-11.696 4.578-21.448 9.75-35.282l-14.05-5.253a219.726 219.726 0 00-8.246 27.408L0 213.31v85.38l41.768 6.918c5.461 23.68 14.758 46.095 27.692 66.771l-24.672 34.446 60.387 60.387 34.446-24.672c20.675 12.935 43.09 22.231 66.771 27.692L213.31 512h85.38l6.918-41.768c23.68-5.461 46.095-14.758 66.771-27.692l34.446 24.672 60.387-60.387-24.672-34.446c12.935-20.675 22.231-43.09 27.692-66.771L512 298.69v-85.38z" stroke="#000" stroke-width="9"/><path d="M388.742 311.84c7.451-17.695 11.228-36.483 11.228-55.84 0-79.385-64.585-143.97-143.97-143.97S112.03 176.615 112.03 256 176.615 399.97 256 399.97c51.79 0 99.824-28.02 125.357-73.125l-13.054-7.39C345.427 359.866 302.395 384.97 256 384.97c-71.114 0-128.97-57.856-128.97-128.97S184.886 127.03 256 127.03 384.97 184.886 384.97 256c0 17.348-3.382 34.177-10.052 50.02z" stroke-width="8" stroke="#000"/><path d="M413.795 199.779c-12.721-34.716-33.371-62.522-63.981-83.264l8.413-12.418c33.804 22.899 56.1 53.53 69.652 90.522zM337.602 109a164.73 164.73 0 00-12.823-6.421l6.125-13.692c4.74 2.12 9.448 4.478 13.993 7.007zM311.45 97.305a162.588 162.588 0 00-13.739-4.076l3.622-14.556a176.996 176.996 0 0115.013 4.454z"/><text transform="scale(1.2968 .77112)" y="448.608" x="154.194" style="line-height:1.25" font-weight="400" font-size="315.641" font-family="sans-serif" letter-spacing="0" word-spacing="0" stroke-width="1.644"><tspan y="448.608" x="154.194">i</tspan></text></svg><svg viewBox="0 0 512.001 512.001" id="instagram" xmlns="http://www.w3.org/2000/svg"><path d="M373.406 0H138.594C62.172 0 0 62.172 0 138.594V373.41C0 449.828 62.172 512 138.594 512H373.41C449.828 512 512 449.828 512 373.41V138.594C512 62.172 449.828 0 373.406 0zm108.578 373.41c0 59.867-48.707 108.574-108.578 108.574H138.594c-59.871 0-108.578-48.707-108.578-108.574V138.594c0-59.871 48.707-108.578 108.578-108.578H373.41c59.867 0 108.574 48.707 108.574 108.578zm0 0"/><path d="M256 116.004c-77.195 0-139.996 62.8-139.996 139.996S178.804 395.996 256 395.996 395.996 333.196 395.996 256 333.196 116.004 256 116.004zm0 249.976c-60.64 0-109.98-49.335-109.98-109.98 0-60.64 49.34-109.98 109.98-109.98 60.645 0 109.98 49.34 109.98 109.98 0 60.645-49.335 109.98-109.98 109.98zm0 0M399.344 66.285c-22.813 0-41.367 18.559-41.367 41.367 0 22.813 18.554 41.371 41.367 41.371s41.37-18.558 41.37-41.37-18.558-41.368-41.37-41.368zm0 52.719c-6.258 0-11.352-5.094-11.352-11.352 0-6.261 5.094-11.351 11.352-11.351 6.261 0 11.355 5.09 11.355 11.351 0 6.258-5.094 11.352-11.355 11.352zm0 0"/></svg><svg viewBox="0 0 512 512" id="list_check" xmlns="http://www.w3.org/2000/svg"><path d="M376.119 93.563a29.164 29.164 0 00-1.673-1.645c-.356-.331-.771-.715-1.293-1.217l-67.775-64.185-1.005-.959c-1.44-1.381-2.785-2.65-4.416-3.551a7.526 7.526 0 00-.791-.402c-1.275-.57-2.738-.917-4.557-.917H13.682C6.138 20.687 0 26.805 0 34.326v443.349c0 7.52 6.138 13.639 13.682 13.639h351.642c7.56 0 13.711-6.118 13.711-13.639V268.818a7.494 7.494 0 10-14.988 0v207.507H14.988V35.675h273.734l-.024 39.074c-.018 8.535 3.321 16.59 9.401 22.683 6.144 6.157 14.308 9.548 22.989 9.548h42.958v126.942a7.494 7.494 0 1014.988 0V99.485a7.475 7.475 0 00-2.915-5.922zm-67.411-6.718c-3.248-3.255-5.032-7.539-5.022-12.075l.018-29.204 49.016 46.426h-31.633c-4.671 0-9.067-1.827-12.379-5.147z"/><path d="M259.134 133.381a7.494 7.494 0 00-7.494-7.494H111.277a7.494 7.494 0 100 14.988H251.64a7.494 7.494 0 007.494-7.494zM111.277 93.434H251.64a7.494 7.494 0 100-14.988H111.277a7.494 7.494 0 100 14.988zM321.606 267.497H185.79a7.494 7.494 0 100 14.988h135.816a7.494 7.494 0 100-14.988zM321.606 224.2H185.79a7.494 7.494 0 100 14.988h135.816a7.494 7.494 0 100-14.988zM321.606 395.246H185.79a7.494 7.494 0 100 14.988h135.816a7.494 7.494 0 100-14.988zM321.606 351.977H185.79a7.494 7.494 0 100 14.988h135.816a7.494 7.494 0 100-14.988zM159.137 182.63a7.493 7.493 0 00-10.482 1.564l-14.722 19.886H62.436c-7.116 0-12.905 5.772-12.905 12.867v72.791c0 7.095 5.789 12.867 12.905 12.867h73.304c7.116 0 12.905-5.772 12.905-12.867v-72.791c0-2.054-.497-3.99-1.359-5.714l13.415-18.121a7.494 7.494 0 00-1.564-10.482zm-25.48 104.986H64.519v-68.549h58.317l-23.889 32.267-7.395-8.328a7.493 7.493 0 00-10.579-.627 7.492 7.492 0 00-.627 10.579l13.527 15.233a7.493 7.493 0 0011.626-.517l28.157-38.034v57.976zM159.137 308.207a7.494 7.494 0 00-10.482 1.564l-14.722 19.885H62.436c-7.116 0-12.905 5.772-12.905 12.867v72.791c0 7.095 5.789 12.867 12.905 12.867h73.304c7.116 0 12.905-5.772 12.905-12.867v-72.791c0-2.054-.497-3.99-1.359-5.714l13.415-18.121a7.493 7.493 0 00-1.564-10.481zm-25.48 104.986H64.519v-68.549h58.318l-23.889 32.268-7.395-8.328a7.493 7.493 0 00-10.579-.627 7.492 7.492 0 00-.627 10.579l13.527 15.233a7.493 7.493 0 0011.626-.517l28.157-38.034zM504.506 114.026h-25.748V98.657c0-6.267-3.594-11.706-8.835-14.412V55.732c0-15.148-12.387-27.471-27.612-27.471s-27.612 12.323-27.612 27.471v28.52c-5.225 2.708-8.807 8.144-8.807 14.406v311.684c0 .047.006.092.007.139.002.101.009.201.015.301a7.717 7.717 0 00.096.849c.038.216.085.429.141.639.017.063.03.126.049.189a7.6 7.6 0 00.296.832l27.89 65.107c.072.168.15.333.233.494l.097.187c.768 1.486 2.798 5.414 7.592 5.414l.118-.001c4.902-.065 6.84-4.073 7.667-5.785.05-.102.097-.205.141-.309l27.916-65.101c.116-.271.215-.551.299-.837.017-.059.03-.119.046-.178a7.289 7.289 0 00.24-1.5c.006-.099.013-.197.015-.296.001-.048.007-.095.007-.144v-56.386a7.494 7.494 0 10-14.988 0v48.892h-42.89V98.657c0-.666.613-1.251 1.313-1.251h40.236c.714 0 1.341.584 1.341 1.251v220.374a7.494 7.494 0 1014.988 0V129.015h18.254V233.78a7.495 7.495 0 0014.989 0V121.521a7.495 7.495 0 00-7.494-7.495zm-44.61 303.81l-17.585 41.007-17.565-41.007zM429.688 82.418V55.732c0-6.883 5.663-12.483 12.624-12.483s12.624 5.6 12.624 12.483v26.687h-25.248z"/></svg><svg viewBox="0 0 148.237 129.563" id="logo" xmlns="http://www.w3.org/2000/svg"><path d="M44.97 128.458c-1.054-.535-1.913-1.131-1.908-1.324.016-.705 41.172-79.312 41.57-79.397.49-.104 3.865 1.553 3.865 1.898 0 .265-41.13 79.306-41.425 79.608-.101.104-1.047-.25-2.101-.785zm13.634-4.672c-.962-.499-1.633-1.035-1.633-1.304 0-.503 8.358-16.784 8.91-17.357.275-.286.736-.225 2.303.304 1.078.364 1.997.78 2.041.925.14.45-9.19 18.153-9.6 18.218-.213.033-1.123-.32-2.021-.786zm42.958-13.93c-8.31-.822-18.492-3.094-27.834-6.212-6.555-2.188-8.52-2.976-8.52-3.415 0-.44 1.64-3.622 1.974-3.828.155-.096 1.981.458 4.057 1.231 12.187 4.54 24.88 7.226 36.004 7.621 20.427.725 31.175-7.157 27.237-19.975-1.194-3.888-4.172-9.056-7.566-13.13-5.07-6.085-11.238-11.49-21.196-18.57l-1.894-1.345 1.003-1.991c.552-1.096 1.176-1.992 1.388-1.992.519 0 7.677 5.057 11.217 7.924 11.701 9.476 19.025 18.89 21.79 28.007 1.07 3.523 1.144 8.357.178 11.43-2.237 7.12-9.3 12.004-20.078 13.886-3.079.537-13.77.754-17.76.359zm-80.061-6.891c-.177-.213-.528-1.504-.781-2.87-.437-2.351-.51-2.504-1.364-2.861-2.042-.853-2.153-.829-4.526.993-1.23.943-2.364 1.715-2.52 1.715-.655 0-3.907-2.606-3.907-3.13 0-.301.383-1.512.852-2.692.468-1.18.852-2.314.852-2.521 0-.207-.391-.916-.87-1.576l-.869-1.2-3.03.092-3.029.093-.668-1.673C.536 84.571.57 84.451 3.09 82.547l2.214-1.674-.085-1.755-.084-1.755-2.13-1.196a191.715 191.715 0 01-2.5-1.42c-.302-.183-.28-.642.12-2.456.271-1.227.671-2.41.889-2.627.24-.24 1.028-.402 2.009-.412 3.04-.031 3.8-.292 4.512-1.55.353-.623.643-1.362.646-1.643.003-.28-.507-1.442-1.131-2.58-.625-1.139-1.136-2.272-1.136-2.52 0-.444 3.284-3.62 3.743-3.62.131 0 1.344.598 2.695 1.328l2.456 1.328 1.304-.689 1.305-.689.231-2.556c.127-1.406.332-2.748.456-2.982.332-.632 4.792-1.54 5.338-1.086.228.19.908 1.325 1.51 2.525 1.155 2.296 1.439 2.537 2.985 2.537.866 0 1.116-.21 2.545-2.144.872-1.179 1.756-2.209 1.965-2.289.504-.194 4.903 1.515 5.078 1.973.076.197.004 1.556-.16 3.02l-.296 2.66.77.662c.992.855 1.375.836 3.862-.19 1.136-.468 2.295-.852 2.575-.852.511 0 3.389 3.753 3.389 4.42 0 .183-.767 1.326-1.704 2.539-.937 1.213-1.704 2.233-1.704 2.267 0 .495.74 1.923 1.095 2.11.257.137 1.456.407 2.665.601 1.21.194 2.335.518 2.503.72.167.2.377 1.507.468 2.902.19 2.927.386 2.663-2.897 3.904-2.02.764-2.329.98-2.78 1.936l-.508 1.076-1.906-1.052c-2.774-1.531-2.838-1.608-2.684-3.212.652-6.782-4.709-13.92-11.52-15.34-7.908-1.65-16.051 3.394-18.084 11.2-.497 1.906-.56 5.633-.129 7.507 1.11 4.817 5.157 9.09 10.004 10.562 1.633.496 2.451.57 4.982.455 3.946-.181 5.728-.85 9.33-3.498.588-.432.72-.402 2.414.557 2.786 1.578 2.614 1.382 2.206 2.511-.303.836-.28 1.376.15 3.42.28 1.335.437 2.615.349 2.845-.149.387-4.113 2.754-4.613 2.754-.123 0-1.092-.91-2.154-2.022-1.737-1.818-2.012-2.002-2.725-1.825-1.78.442-2.136.81-3.038 3.143-.484 1.253-.983 2.435-1.11 2.627-.334.507-4.85.475-5.275-.037zm28.502-9.366c-9.366-4.868-17.762-10.386-24.985-16.422-4.026-3.364-6.958-6.216-6.958-6.766 0-.54 2.922-2.967 3.374-2.803.148.054 1.75 1.427 3.558 3.051 7.807 7.014 16.555 12.987 27.308 18.646 2.257 1.187 4.103 2.216 4.103 2.287 0 .343-2.023 4.09-2.205 4.084-.115-.003-2.003-.938-4.195-2.077zm23.37 1.185c-.898-.313-1.633-.726-1.633-.917 0-.385 26.588-51.84 27.018-52.288.392-.408 4.111 1.579 3.99 2.13-.095.433-25.635 49.894-26.36 51.05-.48.766-.88.77-3.015.025zm68.922-21.043c-8.67-13.42-19.891-24.034-33.632-31.809-4.16-2.354-11.795-6.179-12.333-6.179-.227 0-.699.511-1.05 1.136-.351.625-.81 1.136-1.02 1.136-.605 0-3.774-1.68-3.774-2.002 0-.528 3.192-6.278 3.564-6.421.772-.296 12.655 5.596 19.157 9.5 12.49 7.496 22.543 16.957 31.151 29.314 1.251 1.796 2.544 3.718 2.873 4.27l.598 1.004-1.688 1.055c-.928.58-1.874 1.055-2.102 1.055-.227 0-1.012-.926-1.744-2.059zM5.695 52.957C4 48.903 3.492 43.053 4.533 39.587c1.57-5.228 5.662-9.455 11.553-11.935 5.15-2.167 10.471-3.046 18.447-3.045 15.242.001 32.733 4.198 50.473 12.11 3.995 1.781 10.794 5.207 11.001 5.542.244.394-1.593 4.003-2.036 4.003-.204 0-1.905-.77-3.78-1.71-14.315-7.175-28.812-11.94-43.303-14.234-5.314-.841-15.852-1.055-20.241-.41-10.602 1.557-16.512 5.715-17.684 12.443-.35 2.01-.112 4.472.69 7.134.228.757.352 1.524.275 1.704-.2.473-3.089 2.742-3.489 2.742-.186 0-.52-.438-.744-.974zM106.34 31.772c-.887-.46-1.688-.958-1.78-1.107-.092-.149.295-1.112.86-2.14.566-1.028.96-2.046.878-2.26-.156-.408-7.343-4.46-12.262-6.916-9.415-4.699-20.07-8.606-30.817-11.299-3.174-.795-11.455-2.511-13.707-2.84-.744-.108-1.418-.302-1.497-.43-.122-.198.404-4.232.582-4.468.112-.148 6.757 1.11 11.8 2.233 12.85 2.861 24.628 7.03 36.337 12.861 6.464 3.22 15.619 8.365 15.821 8.893.194.506-3.732 8.169-4.226 8.249-.207.033-1.102-.316-1.989-.776z" paint-order="markers fill stroke"/></svg><svg viewBox="-21 -47 682.667 682" id="message_full" xmlns="http://www.w3.org/2000/svg"><path d="M552.012-1.332H87.988C39.473-1.332 0 38.133 0 86.656V370.63c0 48.414 39.3 87.816 87.676 87.988V587.48l185.191-128.863h279.145c48.515 0 87.988-39.472 87.988-87.988V86.656c0-48.523-39.473-87.988-87.988-87.988zm50.488 371.96c0 27.837-22.648 50.49-50.488 50.49h-290.91l-135.926 94.585v-94.586H87.988c-27.84 0-50.488-22.652-50.488-50.488V86.656c0-27.843 22.648-50.488 50.488-50.488h464.024c27.84 0 50.488 22.645 50.488 50.488zm0 0"/><path d="M171.293 131.172h297.414v37.5H171.293zm0 0M171.293 211.172h297.414v37.5H171.293zm0 0M171.293 291.172h297.414v37.5H171.293zm0 0"/></svg><svg viewBox="0 0 510 510" id="open_eye" xmlns="http://www.w3.org/2000/svg"><path d="M506.597 245.486C460.244 189.012 362.107 123.107 255 123.107c-107.491 0-205.632 66.353-251.597 122.379a15 15 0 000 19.028c47.452 57.84 145.819 122.38 251.597 122.38 109.537 0 207.256-68.357 251.597-122.379a15 15 0 000-19.029zM356.893 255c0 56.184-45.709 101.894-101.894 101.894-56.186 0-101.894-45.713-101.894-101.894 0-56.184 45.709-101.894 101.894-101.894 56.19.001 101.894 45.716 101.894 101.894zm-321.631.004c16.883-17.547 57.591-55.416 114.736-79.721-35.862 47.122-35.876 112.273-.017 159.412-43.449-18.415-83.811-47.509-114.719-79.691zm324.74 79.713c35.862-47.123 35.875-112.273.017-159.412 43.447 18.415 83.81 47.51 114.719 79.69-16.883 17.549-57.591 55.416-114.736 79.722z"/><path d="M204 255c0 28.122 22.878 51 51 51 28.121 0 51-22.878 51-51s-22.879-51-51-51c-28.122 0-51 22.878-51 51zm72 0c0 11.58-9.421 21-21 21-11.58 0-21-9.42-21-21s9.42-21 21-21c11.579 0 21 9.42 21 21zM255 65c8.284 0 15-6.716 15-15V15c0-8.284-6.716-15-15-15s-15 6.716-15 15v35c0 8.284 6.716 15 15 15zM344.5 85.062c7.192 4.102 16.355 1.601 20.461-5.599l19.962-35c4.104-7.196 1.599-16.356-5.598-20.461-7.198-4.104-16.356-1.599-20.461 5.599l-19.962 35c-4.104 7.195-1.598 16.356 5.598 20.461zM145.039 79.463c4.104 7.196 13.264 9.702 20.461 5.598 7.196-4.104 9.702-13.265 5.598-20.461l-19.962-35c-4.104-7.196-13.266-9.702-20.461-5.598-7.196 4.104-9.702 13.265-5.598 20.461zM255 445c-8.284 0-15 6.716-15 15v35c0 8.284 6.716 15 15 15s15-6.716 15-15v-35c0-8.284-6.716-15-15-15zM165.5 424.939c-7.196-4.103-16.356-1.598-20.461 5.598l-19.962 35c-4.104 7.196-1.598 16.357 5.598 20.461 7.197 4.104 16.357 1.597 20.461-5.598l19.962-35c4.105-7.196 1.598-16.357-5.598-20.461zM364.961 430.537c-4.104-7.197-13.267-9.701-20.461-5.599-7.196 4.104-9.702 13.265-5.598 20.461l19.962 35c4.103 7.196 13.263 9.703 20.461 5.599 7.196-4.104 9.702-13.265 5.598-20.461z"/></svg><svg viewBox="0 0 512.003 512.003" id="percentage" xmlns="http://www.w3.org/2000/svg"><path d="M477.958 262.633a15.004 15.004 0 010-13.263l19.096-39.065c10.632-21.751 2.208-47.676-19.178-59.023l-38.41-20.38a15.005 15.005 0 01-7.796-10.729l-7.512-42.829c-4.183-23.846-26.241-39.87-50.208-36.479l-43.053 6.09a15.004 15.004 0 01-12.613-4.099l-31.251-30.232c-17.401-16.834-44.661-16.835-62.061 0L193.72 42.859a15.01 15.01 0 01-12.613 4.099l-43.053-6.09c-23.975-3.393-46.025 12.633-50.208 36.479l-7.512 42.827a15.008 15.008 0 01-7.795 10.73l-38.41 20.38c-21.386 11.346-29.81 37.273-19.178 59.024l19.095 39.064a15.004 15.004 0 010 13.263L14.95 301.699c-10.632 21.751-2.208 47.676 19.178 59.023l38.41 20.38a15.005 15.005 0 017.796 10.729l7.512 42.829c3.808 21.708 22.422 36.932 43.815 36.93 2.107 0 4.245-.148 6.394-.452l43.053-6.09a15 15 0 0112.613 4.099l31.251 30.232c8.702 8.418 19.864 12.626 31.03 12.625 11.163-.001 22.332-4.209 31.03-12.625l31.252-30.232c3.372-3.261 7.968-4.751 12.613-4.099l43.053 6.09c23.978 3.392 46.025-12.633 50.208-36.479l7.513-42.827a15.008 15.008 0 017.795-10.73l38.41-20.38c21.386-11.346 29.81-37.273 19.178-59.024l-19.096-39.065zm-13.923 72.002l-38.41 20.38c-12.246 6.499-20.645 18.057-23.04 31.713l-7.512 42.828a15.038 15.038 0 01-16.987 12.342l-43.053-6.09c-13.73-1.945-27.316 2.474-37.281 12.113L266.5 478.152a15.04 15.04 0 01-20.997 0l-31.251-30.232c-8.422-8.147-19.432-12.562-30.926-12.562-2.106 0-4.229.148-6.355.449l-43.053 6.09a15.042 15.042 0 01-16.987-12.342l-7.513-42.829c-2.396-13.656-10.794-25.215-23.041-31.712l-38.41-20.38a15.037 15.037 0 01-6.489-19.969L60.574 275.6c6.088-12.456 6.088-26.742 0-39.198l-19.096-39.065a15.037 15.037 0 016.489-19.969l38.41-20.38c12.246-6.499 20.645-18.057 23.04-31.713l7.512-42.828a15.038 15.038 0 0116.987-12.342l43.053 6.09c13.725 1.943 27.316-2.474 37.281-12.113l31.252-30.232a15.04 15.04 0 0120.997 0l31.251 30.232c9.965 9.64 23.554 14.056 37.281 12.113l43.053-6.09a15.04 15.04 0 0116.987 12.342l7.512 42.829c2.396 13.656 10.794 25.215 23.041 31.712l38.41 20.38a15.037 15.037 0 016.489 19.969l-19.096 39.064c-6.088 12.455-6.088 26.743 0 39.198l19.096 39.064a15.039 15.039 0 01-6.488 19.972z"/><path d="M363.886 148.116c-5.765-5.766-15.115-5.766-20.881 0l-194.889 194.89c-5.766 5.766-5.766 15.115 0 20.881a14.72 14.72 0 0010.44 4.325c3.778 0 7.558-1.441 10.44-4.325l194.889-194.889c5.768-5.767 5.768-15.115.001-20.882zM196.941 123.116c-29.852 0-54.139 24.287-54.139 54.139s24.287 54.139 54.139 54.139 54.139-24.287 54.139-54.139-24.287-54.139-54.139-54.139zm0 78.747c-13.569 0-24.608-11.039-24.608-24.609 0-13.569 11.039-24.608 24.608-24.608s24.609 11.039 24.609 24.608c-.001 13.57-11.04 24.609-24.609 24.609zM315.061 280.61c-29.852 0-54.139 24.287-54.139 54.139s24.287 54.139 54.139 54.139c29.852 0 54.139-24.287 54.139-54.139s-24.287-54.139-54.139-54.139zm0 78.747c-13.569 0-24.609-11.039-24.609-24.608s11.039-24.608 24.609-24.608c13.569 0 24.608 11.039 24.608 24.608s-11.039 24.608-24.608 24.608z"/></svg><svg viewBox="-42 0 512 512.002" id="person" xmlns="http://www.w3.org/2000/svg"><path d="M210.352 246.633c33.882 0 63.222-12.153 87.195-36.13 23.973-23.972 36.125-53.304 36.125-87.19 0-33.876-12.152-63.211-36.129-87.192C273.566 12.152 244.23 0 210.352 0c-33.887 0-63.22 12.152-87.192 36.125s-36.129 53.309-36.129 87.188c0 33.886 12.156 63.222 36.133 87.195 23.977 23.969 53.313 36.125 87.188 36.125zm0 0M426.129 393.703c-.692-9.976-2.09-20.86-4.149-32.351-2.078-11.579-4.753-22.524-7.957-32.528-3.308-10.34-7.808-20.55-13.37-30.336-5.774-10.156-12.555-19-20.165-26.277-7.957-7.613-17.699-13.734-28.965-18.2-11.226-4.44-23.668-6.69-36.976-6.69-5.227 0-10.281 2.144-20.043 8.5a2711.03 2711.03 0 01-20.879 13.46c-6.707 4.274-15.793 8.278-27.016 11.903-10.949 3.543-22.066 5.34-33.039 5.34-10.972 0-22.086-1.797-33.047-5.34-11.21-3.622-20.296-7.625-26.996-11.899-7.77-4.965-14.8-9.496-20.898-13.469-9.75-6.355-14.809-8.5-20.035-8.5-13.313 0-25.75 2.254-36.973 6.7-11.258 4.457-21.004 10.578-28.969 18.199-7.605 7.281-14.39 16.12-20.156 26.273-5.558 9.785-10.058 19.992-13.371 30.34-3.2 10.004-5.875 20.945-7.953 32.524-2.059 11.476-3.457 22.363-4.149 32.363A438.821 438.821 0 000 423.949c0 26.727 8.496 48.363 25.25 64.32 16.547 15.747 38.441 23.735 65.066 23.735h246.532c26.625 0 48.511-7.984 65.062-23.734 16.758-15.946 25.254-37.586 25.254-64.325-.004-10.316-.351-20.492-1.035-30.242zm0 0"/></svg><svg viewBox="0 0 511.999 511.999" id="phone_contactform" xmlns="http://www.w3.org/2000/svg"><path d="M498.827 377.633l-63.649-63.649c-17.548-17.547-46.102-17.547-63.649 0l-28.931 28.931c-13.294 13.294-34.926 13.29-48.215.005l-125.4-125.507c-13.325-13.325-13.327-34.892 0-48.219l28.931-28.931c17.471-17.47 17.715-45.935-.017-63.665l-63.632-63.432C116.717-4.381 88.164-4.381 70.663 13.12L47.471 36.111c-63.28 63.279-63.28 166.242-.003 229.519L246.16 464.426c63.428 63.429 166.088 63.434 229.521 0l23.146-23.145c17.548-17.548 17.548-46.1 0-63.648zM91.833 34.382c5.849-5.849 15.365-5.85 21.233.016l63.632 63.432c5.863 5.863 5.863 15.352 0 21.216l-10.609 10.608-84.81-84.81 10.554-10.462zM267.38 443.213L68.687 244.415c-48.958-48.958-51.649-125.833-8.276-178.006l84.564 84.564c-22.22 25.189-21.294 63.572 2.787 87.653l125.396 125.501.004.004c24.055 24.056 62.436 25.042 87.656 2.792l84.566 84.566c-52.007 43.298-128.709 41.019-178.004-8.276zm210.232-23.148l-10.609 10.609-84.865-84.866 10.607-10.608c5.85-5.849 15.367-5.85 21.217 0l63.649 63.649c5.85 5.85 5.85 15.368.001 21.216z"/></svg><svg viewBox="0 0 512 512" id="pigeon" xmlns="http://www.w3.org/2000/svg"><path d="M393.35 492c-5.522 0-10 4.478-10 10s4.478 10 10 10h.057c5.522 0 9.972-4.478 9.972-10s-4.506-10-10.029-10zM377.165 147.777c5.522 0 10-4.491 10-10.014 0-5.522-4.478-10-10-10s-10 4.478-10 10v.028c0 5.523 4.477 9.986 10 9.986z"/><path d="M502 337.11H388.851c11.219-19.403 18.058-43.176 20.749-72.11 2.952-31.955 9.672-54.925 21.146-72.286 14.415-21.812 30.708-31.53 49.792-29.743 4.246.396 8.255-1.922 10.027-5.785s.909-8.426-2.152-11.374l-45.041-43.371c-28.618-27.565-72.991-35.53-113.048-20.288-19.985 7.604-36.82 20.056-49.673 36.135-26.075-25.988-51.378-31.913-75.927-37.653C170.57 72.65 135.252 64.392 86.684 3.75a10 10 0 00-17.734 7.442c3.981 33.191 10.064 62.399 18.445 88.19.075.281.167.559.268.837 10.374 31.642 24.251 58.096 42.018 80.373-31.34 3.443-67.924 3.096-116.579-12.791a10.001 10.001 0 00-11.519 14.91c35.996 56.054 71.762 92.07 112.557 113.346a191.683 191.683 0 0041.338 15.829c-25.421 11.579-64.025 16.552-124.132 16.552l-2.645-.003h-.024a9.998 9.998 0 00-9.569 7.097c-9.94 32.766.243 73.524 26.576 106.372 24.709 30.821 58.924 48.625 92.758 48.624 2.395 0 4.79-.09 7.177-.27a10.006 10.006 0 006.433-3.017l76.455-78.982c14.499-1.26 30.508-2.837 46.218-5.323V502c0 5.437 4.562 10 10 10h63.722c5.522 0 10-4.478 10-10s-4.478-10-10-10h-37.906l60.355-55.012 15.811 14.038a9.981 9.981 0 006.64 2.521 9.984 9.984 0 006.639-2.521l15.827-14.048L476.184 492h-37.906c-5.522 0-10 4.478-10 10s4.478 10 10 10H502c3.219 0 6.303-1.608 8.161-4.233A10.065 10.065 0 00512 502V347.11c0-5.435-4.565-10-10-10zM123.883 135.128c19.471 9.009 42.604 12.538 61.245 12.538 7.137 0 13.619-.517 18.977-1.437 5.443-.935 9.098-6.104 8.164-11.548-.935-5.443-6.1-9.105-11.548-8.163-11.819 2.029-32.65 1.649-52.548-3.771-15.145-4.128-34.584-12.546-41.648-29.23-5.128-15.709-9.365-32.816-12.755-51.48 42.077 43.032 75.97 50.958 106.403 58.074 24.618 5.755 46.093 10.78 69.121 35.166-7.079 12.808-12.075 27.194-14.698 42.748-32.914-11.853-62.009-7.109-92.608-2.102-2.912.476-5.857.957-8.834 1.43-11.205-12.384-20.932-26.375-29.271-42.225zM274.728 347.11v35.578c-17.394 2.908-35.603 4.598-51.651 5.965a9.996 9.996 0 00-6.336 3.009l-76.319 78.841c-28.412.742-57.734-14.418-79.132-41.108a131.793 131.793 0 01-6.849-9.363c.862.016 1.727.027 2.598.027 22.302 0 47.488-5.153 70.018-14.699 5.085-2.155 7.461-8.024 5.306-13.109-2.154-5.086-8.024-7.459-13.109-5.307-24.803 10.51-53.97 15.128-76.011 12.254-7.191-17.264-9.643-34.996-6.718-50.767 58.022-.223 115.097-4.832 148.754-31.335a219.283 219.283 0 0021.505 1.058c19.187 0 39.377-2.378 60.696-7.12 5.392-1.199 8.79-6.542 7.591-11.933-1.199-5.392-6.549-8.781-11.933-7.591-65.425 14.553-118.82 5.423-166.641-30.533 7.627.782 15.621 1.131 23.752 1.131 31.746 0 65.53-5.256 87.288-10.252 5.383-1.235 8.745-6.601 7.509-11.983-1.236-5.384-6.599-8.742-11.984-7.509-52.769 12.115-120.565 14.465-140.527-2.399-9.78-10.573-19.376-22.411-28.85-35.566 56.668 13.509 97.693 6.797 131.528 1.262 33.963-5.557 60.789-9.947 93.359 5.687 6.221 2.98 13.764-1.365 14.298-8.246 3.369-43.668 27.506-78.156 64.564-92.257 32.854-12.498 68.991-6.22 92.061 16.001l29.357 28.269c-16.898 4.833-31.904 17.065-44.795 36.573-13.362 20.218-21.108 46.106-24.376 81.467-2.92 31.389-11.019 55.643-24.72 73.956h-80.237c-5.431-.001-9.996 4.564-9.996 9.999zm20 132.245v-88.177V369.36l61.132 54.275zm98.623-49.18l-15.814-14.04a7.824 7.824 0 00-.136-.121l-66.347-58.905h164.614zM492 479.355l-61.142-55.729L492 369.357z"/></svg><svg viewBox="0 0 52 52" id="success" xmlns="http://www.w3.org/2000/svg"><path d="M26 0C11.664 0 0 11.663 0 26s11.664 26 26 26 26-11.663 26-26S40.336 0 26 0zm0 50C12.767 50 2 39.233 2 26S12.767 2 26 2s24 10.767 24 24-10.767 24-24 24z"/><path d="M38.252 15.336l-15.369 17.29-9.259-7.407a1 1 0 00-1.249 1.562l10 8a.999.999 0 001.373-.117l16-18a1 1 0 10-1.496-1.328z"/></svg><svg viewBox="0 -60 512 511" id="telegram" xmlns="http://www.w3.org/2000/svg"><path d="M507.773 7.293c-5.015-6.11-13.332-8.375-20.726-5.656L17.39 171.359C8.008 174.77 1.42 183.04.199 192.941c-1.21 9.856 3.133 19.418 11.281 24.922l67.133 45.828a21.13 21.13 0 0021.832 1.243L246.07 188.14l-113.496 84.746c-5.328 3.98-8.512 10.328-8.512 16.976v78.5c0 8.098 4.442 15.516 11.59 19.367a22.028 22.028 0 0022.61-1.015l51.004-33.832 50.156 34.199c4.394 3.012 9.629 4.598 14.91 4.598 1.785 0 3.578-.184 5.344-.551 7.043-1.469 13.273-5.82 17.097-11.938L509.262 28.81c4.136-6.746 3.543-15.38-1.489-21.516zM273.211 360.156l-51.941-35.418a21.134 21.134 0 00-11.938-3.703c-4.07 0-8.144 1.184-11.71 3.55l-43.544 28.884v-59.176l200.41-149.645c8.95-6.683 11.203-18.847 5.239-28.293-5.97-9.445-17.918-12.636-27.797-7.425L91.148 235.902l-56.78-38.761L466.854 40.85zm0 0"/></svg><svg viewBox="0 -117 679.999 679" id="truck" xmlns="http://www.w3.org/2000/svg"><path d="M12.348 378.383h37.39c4.371 37.715 36.317 66.164 74.278 66.164 37.968 0 69.906-28.45 74.28-66.164h241.79c4.383 37.715 36.316 66.164 74.277 66.164 37.969 0 69.903-28.45 74.285-66.164h78.891c6.883 0 12.461-5.578 12.461-12.461V12.965C680 6.082 674.422.5 667.54.5H235.062c-6.875 0-12.458 5.582-12.458 12.465v69.914h-105.57a12.477 12.477 0 00-10.219 5.363l-68.171 97.582-26.668 37.39-9.723 13.837a12.449 12.449 0 00-2.25 7.101v121.399a12.473 12.473 0 0012.344 12.832zm111.418 37.387c-27.528 0-49.852-22.32-49.852-49.848 0-27.535 22.324-49.856 49.852-49.856 27.535 0 49.855 22.32 49.855 49.856 0 27.633-22.219 50.133-49.855 50.473zm390.347 0c-27.531 0-49.855-22.32-49.855-49.848 0-27.535 22.324-49.856 49.855-49.856 27.54 0 49.856 22.32 49.856 49.856.004 27.633-22.219 50.133-49.856 50.473zM654.824 25.426V248.77H316.45c-6.883 0-12.465 5.578-12.465 12.46 0 6.883 5.582 12.465 12.465 12.465h338.375v79.762h-66.422c-4.382-37.71-36.32-66.156-74.289-66.156-37.96 0-69.898 28.445-74.277 66.156H247.527V82.133h89.98c6.884 0 12.466-5.582 12.466-12.465s-5.582-12.465-12.465-12.465h-89.98V25.426zM123.52 107.809h99.703v245.648h-24.926c-4.375-37.71-36.313-66.156-74.281-66.156-37.961 0-69.907 28.445-74.278 66.156h-24.93V248.141l3.739-5.36h152.055c6.882 0 12.46-5.574 12.46-12.457v-92.226c0-6.883-5.578-12.465-12.46-12.465h-69.797zm-30.16 43h74.777v67.296H45.87zm0 0"/></svg><svg viewBox="0 -45 512 512" id="twitter" xmlns="http://www.w3.org/2000/svg"><path d="M194.816 422.71c-85.453 0-152.992-14.929-185.304-40.952l-.63-.508-.57-.57C.638 373-1.877 362.926 1.418 353.043l.3-.82c4-10.004 13.802-16.739 24.423-16.801 21.859-.379 40.984-2.985 58.34-8.043-27.684-12.875-46.915-35.168-58.356-67.434-3.848-10.062-.527-21.218 8.34-27.87 2.187-1.645 4.66-2.887 7.277-3.72-15.383-17.757-26.746-37.964-33.11-59.335l-.198-.665-.137-.68c-2.16-10.808 2.672-21.921 11.527-26.706 3.715-2.133 7.75-3.239 11.801-3.332-4.367-9.407-7.543-19.063-9.426-28.778-5.226-26.921-.914-53.91 12.813-80.214l3.175-6.352a17.759 17.759 0 0113.004-9.563 17.76 17.76 0 0115.356 4.958l5.785 5.792c45.703 47.915 86.64 70.649 157.418 86.204 3.16-27.168 14.906-52.422 33.855-72.297C286.156 13.738 316.27.469 348.398.016h.211c23.442 0 52.52 13.382 70.106 22.82 15.086-4.938 33.262-12.582 52.12-20.664 8.825-4.14 19.704-2.246 26.642 4.691 6.8 6.801 8.687 16.39 5.078 25.711a126.223 126.223 0 01-4.657 11.227c2.582 1.183 4.946 2.789 6.942 4.785 6.035 6.035 8.55 15.48 6.406 24.066l-.23.817c-7.227 23.289-21.11 42.258-39.47 54.164C468.48 290.918 345.52 422.71 194.817 422.71zM38.305 365.036c30.449 17.227 88.476 27.649 156.511 27.649 65.41 0 127.137-28.082 173.805-79.075 47.05-51.41 72.961-119.68 72.961-192.234v-.816c0-6.57 3.617-12.567 9.438-15.653C462.828 98.652 472.39 88 478.61 74.38c-6.415 1.012-12.934-1.563-16.93-6.93a17.621 17.621 0 01-.13-20.957 97.453 97.453 0 006.692-10.59c-16.285 6.84-31.75 12.973-45.176 17.047-4.878 1.477-10.316.899-14.773-1.59-23.902-13.316-46.164-21.277-59.586-21.316-49.527.758-89.797 43.176-89.797 94.605 0 5.317-2.36 10.301-6.465 13.68a17.646 17.646 0 01-14.672 3.695c-81.609-16.078-129.968-40.187-180.257-90.722-7.207 17.27-9.176 34.664-5.844 51.84 3.379 17.398 12.367 34.832 25.996 50.414 5.18 5.914 5.867 14.375 1.71 21.05-4.14 6.653-12.01 9.762-19.577 7.735-5.914-1.586-11.352-3.668-16.508-6.344 10.504 22.816 28.57 43.918 51.281 59.48 6.582 4.512 9.332 12.922 6.692 20.454-2.645 7.543-10.032 12.398-18.016 11.804-8.7-.644-16.406-2.296-23.5-5.082 12.734 25.934 33.082 40.203 64.43 45.657a17.72 17.72 0 0114.465 14.668 17.714 17.714 0 01-9.2 18.43c-26.718 14.163-55.922 21.765-91.14 23.628zm0 0"/></svg><svg viewBox="0 -62 512.002 512" id="youtube" xmlns="http://www.w3.org/2000/svg"><path d="M334.809 170.992l-113.114-61.89c-6.504-3.559-14.191-3.426-20.566.351-6.379 3.781-10.184 10.461-10.184 17.875v122.719c0 7.379 3.782 14.047 10.118 17.832 3.308 1.976 6.976 2.969 10.652 2.969a20.74 20.74 0 009.848-2.504L334.68 207.52a20.772 20.772 0 0010.937-18.223 20.763 20.763 0 00-10.808-18.305zm-113.86 63.617v-91.718l84.54 46.257zm0 0"/><path d="M508.234 91.527l-.023-.234c-.434-4.121-4.75-40.777-22.57-59.422C465.043 9.941 441.69 7.277 430.46 6a135.45 135.45 0 01-2.543-.305l-.895-.093C359.336.68 257.113.008 256.09.004L256 0l-.09.004C254.887.008 152.664.68 84.367 5.602l-.902.093c-.727.098-1.528.188-2.399.29-11.101 1.28-34.203 3.949-54.859 26.671C9.234 51.102 4.328 86.973 3.824 91.004l-.058.523C3.613 93.242 0 134.067 0 175.051v38.312c0 40.985 3.613 81.809 3.766 83.528l.027.257c.434 4.055 4.746 40.04 22.484 58.692 19.368 21.195 43.856 24 57.028 25.508 2.082.238 3.875.441 5.097.656l1.184.164c39.082 3.719 161.617 5.55 166.812 5.625l.157.004.156-.004c1.023-.004 103.242-.676 170.93-5.598l.894-.093c.856-.114 1.817-.215 2.871-.325 11.04-1.172 34.016-3.605 54.387-26.02 16.973-18.448 21.883-54.32 22.383-58.347l.058-.523c.153-1.719 3.77-42.54 3.77-83.524v-38.312c-.004-40.985-3.617-81.805-3.77-83.524zm-26.238 121.836c0 37.934-3.312 77-3.625 80.586-1.273 9.88-6.45 32.574-14.719 41.563-12.75 14.027-25.847 15.418-35.41 16.43a164.16 164.16 0 00-3.195.359c-65.469 4.734-163.832 5.46-168.363 5.488-5.082-.074-125.825-1.922-163.715-5.441-1.942-.317-4.04-.559-6.25-.809-11.215-1.285-26.567-3.043-38.371-16.027l-.278-.297c-8.125-8.465-13.152-29.688-14.43-41.149-.238-2.71-3.636-42.238-3.636-80.703v-38.312c0-37.89 3.305-76.914 3.625-80.574 1.52-11.637 6.793-32.957 14.719-41.575 13.14-14.453 26.996-16.054 36.16-17.113.875-.102 1.691-.195 2.445-.293 66.422-4.758 165.492-5.465 169.047-5.492 3.555.023 102.59.734 168.422 5.492.808.102 1.691.203 2.64.313 9.426 1.074 23.672 2.699 36.747 16.644l.12.129c8.126 8.465 13.153 30.059 14.43 41.75.227 2.559 3.637 42.172 3.637 80.719zm0 0"/></svg></svg>